<svg width="61" height="33" viewBox="0 0 61 33" fill="none" xmlns="http://www.w3.org/2000/svg">
<path d="M20.4998 12.3958H13.0623V4.95833H8.104V12.3958H0.666504V17.3542H8.104V24.7917H13.0623V17.3542H20.4998V12.3958ZM45.2915 14.875C49.4069 14.875 52.7042 11.5529 52.7042 7.4375C52.7042 3.32208 49.4069 0 45.2915 0C44.4982 0 43.7296 0.123958 43.0355 0.347083C44.4486 2.35521 45.2667 4.78479 45.2667 7.4375C45.2667 10.0902 44.4238 12.495 43.0355 14.5279C43.7296 14.751 44.4982 14.875 45.2915 14.875ZM32.8957 14.875C37.0111 14.875 40.3084 11.5529 40.3084 7.4375C40.3084 3.32208 37.0111 0 32.8957 0C28.7803 0 25.4582 3.32208 25.4582 7.4375C25.4582 11.5529 28.7803 14.875 32.8957 14.875ZM49.3078 20.23C51.3655 22.0398 52.729 24.3454 52.729 27.2708V32.2292H60.1665V27.2708C60.1665 23.4529 54.2909 21.0977 49.3078 20.23ZM32.8957 19.8333C27.9373 19.8333 18.0207 22.3125 18.0207 27.2708V32.2292H47.7707V27.2708C47.7707 22.3125 37.854 19.8333 32.8957 19.8333Z" fill="white"/>
</svg>
