<svg width="1468" height="414" viewBox="0 0 1468 414" fill="none" xmlns="http://www.w3.org/2000/svg">
<g filter="url(#filter0_d_502_27)">
<path d="M1454 128V387.362C1404.73 390.441 1354.38 390.827 1304.77 388.507C1171.14 382.304 1048.35 360.453 926.047 340.782C803.741 321.112 673.645 302.99 539.002 305.052C379.975 307.485 237.01 337.474 99.4643 365.36C71.4761 370.991 43.0284 376.639 14 382.009V128H1454Z" fill="white" fill-opacity="0.6"/>
<g filter="url(#filter1_d_502_27)">
<path d="M1454 128V320.135C1365.49 324.234 1278.56 331.735 1194.8 342.499C1069.42 358.551 948.06 381.495 815.013 385.275C690.022 388.827 566.531 375.048 449.909 359.022C333.288 342.996 217.876 324.378 94.0457 317.476C67.5649 315.995 40.8162 315.168 14 315.001L14 128H1454Z" fill="white" fill-opacity="0.4" shape-rendering="crispEdges"/>
</g>
<g filter="url(#filter2_d_502_27)">
<path d="M1454 4.38412V303.066C1361.52 285.39 1269.16 267.529 1165.97 266.511C959.55 264.474 798.274 329.319 597.76 346.43C485.88 355.975 368.073 350.05 255.419 341.666C175.204 335.699 95.0859 328.519 14 324.74V4.38412H1454Z" fill="white"/>
</g>
</g>
<defs>
<filter id="filter0_d_502_27" x="0" y="0.384125" width="1468" height="413.616" filterUnits="userSpaceOnUse" color-interpolation-filters="sRGB">
<feFlood flood-opacity="0" result="BackgroundImageFix"/>
<feColorMatrix in="SourceAlpha" type="matrix" values="0 0 0 0 0 0 0 0 0 0 0 0 0 0 0 0 0 0 127 0" result="hardAlpha"/>
<feOffset dy="10"/>
<feGaussianBlur stdDeviation="7"/>
<feComposite in2="hardAlpha" operator="out"/>
<feColorMatrix type="matrix" values="0 0 0 0 0 0 0 0 0 0 0 0 0 0 0 0 0 0 0.25 0"/>
<feBlend mode="normal" in2="BackgroundImageFix" result="effect1_dropShadow_502_27"/>
<feBlend mode="normal" in="SourceGraphic" in2="effect1_dropShadow_502_27" result="shape"/>
</filter>
<filter id="filter1_d_502_27" x="0" y="128" width="1468" height="285.838" filterUnits="userSpaceOnUse" color-interpolation-filters="sRGB">
<feFlood flood-opacity="0" result="BackgroundImageFix"/>
<feColorMatrix in="SourceAlpha" type="matrix" values="0 0 0 0 0 0 0 0 0 0 0 0 0 0 0 0 0 0 127 0" result="hardAlpha"/>
<feOffset dy="14"/>
<feGaussianBlur stdDeviation="7"/>
<feComposite in2="hardAlpha" operator="out"/>
<feColorMatrix type="matrix" values="0 0 0 0 0 0 0 0 0 0 0 0 0 0 0 0 0 0 0.25 0"/>
<feBlend mode="normal" in2="BackgroundImageFix" result="effect1_dropShadow_502_27"/>
<feBlend mode="normal" in="SourceGraphic" in2="effect1_dropShadow_502_27" result="shape"/>
</filter>
<filter id="filter2_d_502_27" x="0" y="4.38412" width="1468" height="374.948" filterUnits="userSpaceOnUse" color-interpolation-filters="sRGB">
<feFlood flood-opacity="0" result="BackgroundImageFix"/>
<feColorMatrix in="SourceAlpha" type="matrix" values="0 0 0 0 0 0 0 0 0 0 0 0 0 0 0 0 0 0 127 0" result="hardAlpha"/>
<feOffset dy="14"/>
<feGaussianBlur stdDeviation="7"/>
<feComposite in2="hardAlpha" operator="out"/>
<feColorMatrix type="matrix" values="0 0 0 0 0 0 0 0 0 0 0 0 0 0 0 0 0 0 0.25 0"/>
<feBlend mode="normal" in2="BackgroundImageFix" result="effect1_dropShadow_502_27"/>
<feBlend mode="normal" in="SourceGraphic" in2="effect1_dropShadow_502_27" result="shape"/>
</filter>
</defs>
</svg>
