<svg width="68" height="68" viewBox="0 0 68 68" fill="none" xmlns="http://www.w3.org/2000/svg">
<path d="M65.2245 16.6531C66.7549 16.6531 68 15.408 68 13.8776V2.77551C68 1.24509 66.7549 0 65.2245 0H2.77551C1.24509 0 0 1.24509 0 2.77551V13.8776C0 15.408 1.24509 16.6531 2.77551 16.6531H4.85714V51.3469H2.77551C1.24509 51.3469 0 52.592 0 54.1225V65.2245C0 66.7549 1.24509 68 2.77551 68H65.2245C66.7549 68 68 66.7549 68 65.2245V54.1225C68 52.592 66.7549 51.3469 65.2245 51.3469H63.1429V16.6531H65.2245ZM45.102 65.2245H22.898V59.6735H45.102V65.2245ZM65.2245 54.1225L65.2248 65.2245H47.8776V58.2857C47.8776 57.5194 47.2561 56.898 46.4898 56.898H21.5102C20.7437 56.898 20.1224 57.5194 20.1224 58.2857V65.2245H2.77551V54.1225H65.2245ZM30.5306 26.3673V21.5102H37.4694V26.3673H30.5306ZM37.4694 29.1429V31.2245H30.5306V29.1429H37.4694ZM7.63265 18.7347V16.6531H60.3673V18.7347H7.63265ZM27.7551 21.5102V32.6122C27.7551 33.3787 28.3764 34 29.1429 34H32.6122V37.4694H35.3878V34H38.8571C39.6235 34 40.2449 33.3787 40.2449 32.6122V21.5102H60.3673V23.5918H42.3265V26.3673H54.1225V51.3469H13.8776V26.3673H25.6735V23.5918H7.63265V21.5102H27.7551ZM60.3673 26.3673V51.3469H56.898V26.3673H60.3673ZM11.102 26.3673V51.3469H7.63265V26.3673H11.102ZM2.77551 13.8776V2.77551H65.2245L65.2248 13.8776H2.77551Z" fill="white"/>
</svg>
