<svg width="1440" height="300" viewBox="0 0 1440 300" fill="none" xmlns="http://www.w3.org/2000/svg">
<mask id="mask0_313_58" style="mask-type:alpha" maskUnits="userSpaceOnUse" x="0" y="0" width="1440" height="300">
<rect width="1440" height="300" fill="#FF0000"/>
</mask>
<g mask="url(#mask0_313_58)">
<path d="M0 249V-0.5H1440V256.5C1319.46 261 1191.91 249 889.309 206.5C586.704 164 580.702 176.5 460.16 176.5C363.726 176.5 114.373 224.833 0 249Z" fill="white" fill-opacity="0.4"/>
<path d="M0 184V-0.5H1440C1440.48 78.9315 1440.05 157.612 1440 165.802L1440 166.5C1171.75 83.5 819.261 160 737.685 184C656.109 208 487.953 215 404.876 213.5C338.414 212.3 107.266 193.333 0 184Z" fill="white"/>
<path d="M0 188.5V3.99988H1440V194C1435.34 188.667 1365.58 186.9 1123.83 222.5C821.644 267 740.229 256 695.775 256C651.322 256 367.617 226 276.712 210C203.988 197.2 61.9355 190.333 0 188.5Z" fill="white" fill-opacity="0.6"/>
</g>
</svg>
