<svg width="61" height="58" viewBox="0 0 61 58" fill="none" xmlns="http://www.w3.org/2000/svg">
<path d="M44.3284 13.6716L37.5001 10.5833L44.3284 7.49496L47.4167 0.666626L50.5051 7.49496L57.3334 10.5833L50.5051 13.6716L47.4167 20.5L44.3284 13.6716ZM55.2934 31.04L53.0834 26.1666L50.8734 31.04L46.0001 33.25L50.8734 35.46L53.0834 40.3333L55.2934 35.46L60.1667 33.25L55.2934 31.04ZM41.0134 35.715L46.5101 39.88L39.4267 52.1483L33.0801 49.485C32.5134 49.8533 31.8901 50.2216 31.2667 50.5333L30.4167 57.3333H16.2501L15.4001 50.505C14.7767 50.1933 14.1817 49.8533 13.5867 49.4566L7.24007 52.12L0.156738 39.8516L5.6534 35.6866C5.62507 35.375 5.62507 35.0066 5.62507 34.6666C5.62507 34.3266 5.62507 33.9583 5.6534 33.6183L0.156738 29.4533L7.24007 17.185L13.5867 19.8483C14.1534 19.48 14.7767 19.1116 15.4001 18.8L16.2501 12H30.4167L31.2667 18.8283C31.8901 19.14 32.4851 19.48 33.0801 19.8766L39.4267 17.2133L46.5101 29.4816L41.0134 33.6466C41.0417 33.9866 41.0417 34.3266 41.0417 34.695C41.0417 35.0633 41.0417 35.375 41.0134 35.715ZM31.8334 34.6666C31.8334 29.9633 28.0367 26.1666 23.3334 26.1666C18.6301 26.1666 14.8334 29.9633 14.8334 34.6666C14.8334 39.37 18.6301 43.1666 23.3334 43.1666C28.0367 43.1666 31.8334 39.37 31.8334 34.6666Z" fill="white"/>
</svg>
