<svg width="91" height="24" viewBox="0 0 91 24" fill="none" xmlns="http://www.w3.org/2000/svg">
<g clip-path="url(#clip0_302_389)">
<path d="M78.6306 0.885248C78.1929 1.00917 77.9292 1.33348 77.9292 1.7158C77.9292 2.15349 78.1665 2.42771 78.5225 2.42771C78.7387 2.42771 78.8916 2.3486 78.9971 2.19568C79.1473 1.9742 79.2212 1.69471 79.3346 1.40467C79.5455 0.877338 79.7722 0.62158 80.2152 0.62158C80.7636 0.62158 81.1249 1.01708 81.1249 1.62352C81.1249 2.15085 80.8348 2.5279 80.2917 2.6861L80.1941 2.34333C80.6002 2.23259 80.8111 1.96629 80.8111 1.58397C80.8111 1.21483 80.5949 0.985442 80.2574 0.985442C80.0913 0.985442 79.9594 1.06454 79.8434 1.20692C79.73 1.35194 79.6536 1.6077 79.5323 1.93201C79.3108 2.51735 79.0788 2.78893 78.5515 2.78893C77.9898 2.78893 77.6102 2.38025 77.6102 1.73426C77.6102 1.12782 77.916 0.716501 78.5198 0.529296L78.6358 0.885248H78.6306ZM77.6049 4.53705C77.6049 3.70913 78.2298 3.22926 79.3662 3.22926C80.4894 3.22926 81.1249 3.73813 81.1249 4.51068C81.1249 5.14348 80.7821 5.53899 80.1097 5.684L80.0201 5.33069C80.5316 5.22522 80.8058 4.94573 80.8058 4.54496C80.8058 3.96489 80.3049 3.61157 79.3557 3.61157C78.4328 3.61157 77.9318 3.96753 77.9318 4.5555C77.9318 4.99847 78.2219 5.30432 78.7598 5.39924L78.6859 5.74201C77.9635 5.5759 77.6049 5.17776 77.6049 4.53969V4.53705ZM81.0669 6.31153V6.68067H79.6114V8.39451H81.0669V8.76364H77.6603V8.39451H79.2818V6.68067H77.6576V6.31153H81.0642H81.0669ZM81.1222 10.6911C81.1222 11.4952 80.4578 12.0358 79.3662 12.0358C78.2746 12.0358 77.6075 11.4952 77.6075 10.6911C77.6075 9.88423 78.2799 9.34635 79.3688 9.34635C80.4604 9.34108 81.1275 9.88423 81.1275 10.6911H81.1222ZM77.9318 10.6911C77.9318 11.2843 78.4486 11.6561 79.3662 11.6561C80.289 11.6561 80.8005 11.2869 80.8005 10.6911C80.8005 10.0952 80.289 9.7234 79.3688 9.7234C78.4539 9.7234 77.9398 10.0925 77.9398 10.6911H77.9318ZM81.1222 13.8973C81.1222 14.7014 80.4578 15.242 79.3662 15.242C78.2746 15.242 77.6075 14.7014 77.6075 13.8973C77.6075 13.0904 78.2799 12.5473 79.3688 12.5473C80.4604 12.5473 81.1275 13.0904 81.1275 13.892L81.1222 13.8973ZM77.9318 13.8973C77.9318 14.4905 78.4486 14.8623 79.3662 14.8623C80.289 14.8623 80.8005 14.4931 80.8005 13.8946C80.8005 13.2987 80.289 12.927 79.3688 12.927C78.4539 12.927 77.9398 13.2961 77.9398 13.892L77.9318 13.8973ZM81.0669 15.8458V16.2281H77.9819V17.7494H77.6603V15.8484H81.0669V15.8458ZM81.1222 20.0302C81.1222 20.837 80.4578 21.3749 79.3662 21.3749C78.2746 21.3749 77.6075 20.837 77.6075 20.0302C77.6075 19.2233 78.2799 18.6855 79.3688 18.6855C80.4604 18.6855 81.1275 19.2233 81.1275 20.0302H81.1222ZM77.9318 20.0302C77.9318 20.6234 78.4486 20.9952 79.3662 20.9952C80.289 20.9952 80.8005 20.6261 80.8005 20.0302C80.8005 19.4369 80.289 19.0651 79.3688 19.0651C78.4539 19.0651 77.9398 19.4343 77.9398 20.0302H77.9318ZM81.0669 21.9813V23.9773H80.7505V22.3557H79.6114V23.5581H79.2897V22.3557H77.6603V21.9813H81.0669ZM83.2078 2.7362C82.9178 2.52526 82.7807 2.23523 82.7807 1.83445C82.7807 1.02499 83.4293 0.50293 84.5209 0.50293C85.6547 0.50293 86.298 1.0039 86.298 1.84764C86.298 2.4488 85.9632 2.8443 85.2961 3.03414L85.2249 2.64655C85.7179 2.51472 85.9737 2.24577 85.9737 1.83445C85.9737 1.23593 85.4727 0.885248 84.5499 0.885248C83.6218 0.885248 83.105 1.25966 83.105 1.86082C83.105 2.35388 83.4029 2.68346 83.9224 2.68346H84.1597V1.90037H84.4866V3.07369H82.8334V2.74938L83.2026 2.7362H83.2078ZM86.24 3.9728V4.92728C86.24 5.85011 85.9922 6.29044 85.3435 6.29044C84.8953 6.29044 84.6053 6.05314 84.4734 5.58381L82.8387 6.38536V5.9714L84.3812 5.22258V4.34457H82.8361V3.97544H86.2374L86.24 3.9728ZM85.9236 4.34193H84.6949V4.91409C84.6949 5.59963 84.8663 5.90812 85.3093 5.90812C85.8102 5.90812 85.9262 5.61018 85.9262 4.92728V4.34721L85.9236 4.34193ZM86.24 7.91991V8.4947L82.8387 9.5441V9.1486L83.8934 8.84274V7.57714L82.8387 7.27392V6.87315L86.24 7.92254V7.91991ZM84.2098 8.73728L85.9869 8.22576V8.17303L84.2098 7.65888V8.732V8.73728ZM86.24 10.1637V10.9732C86.24 11.432 86.1873 11.7642 85.9763 12.0542C85.6863 12.4234 85.1906 12.6396 84.5394 12.6396C83.4109 12.6396 82.8361 12.0542 82.8361 10.8914V10.1637H86.2374H86.24ZM85.9236 10.5329H83.1709V10.8361C83.1709 11.2685 83.2131 11.5823 83.4082 11.8248C83.6271 12.107 84.0147 12.2652 84.5367 12.2652C85.0825 12.2652 85.478 12.1122 85.7048 11.8169C85.9025 11.5638 85.9262 11.2738 85.9262 10.8862V10.5302L85.9236 10.5329ZM86.24 13.6942H84.0463C83.8354 13.6942 83.6508 13.6942 83.4926 13.7812C83.25 13.9052 83.105 14.1767 83.105 14.5459C83.105 14.915 83.2474 15.1919 83.4873 15.3105C83.6666 15.4028 83.8644 15.4028 84.1043 15.4028H86.2347V15.7772H83.9804C83.1894 15.7772 82.7754 15.3501 82.7754 14.5485C82.7754 13.7417 83.1841 13.3225 83.9804 13.3225H86.2347V13.6995L86.24 13.6942ZM86.24 17.3197V17.8945L82.8387 18.9412V18.5457L83.8934 18.2372V16.9716L82.8387 16.6684V16.2729L86.24 17.3223V17.3197ZM84.2098 18.137L85.9869 17.6255V17.5728L84.2098 17.0613V18.1344V18.137ZM85.9157 19.9669V18.9729H86.24V21.3459H85.9157V20.3518H82.8308V19.9669H85.9157ZM86.24 21.9655V23.9773H85.9236V22.3425H84.7846V23.5027H84.4682V22.3425H83.1604V23.9773H82.8361V21.9655H86.2374H86.24ZM18.2612 13.2565C19.9223 13.3726 19.9223 14.1003 19.9223 15.4107V19.1126C19.9223 20.4942 19.9223 21.2483 19.4609 21.9602C18.7569 23.0597 17.3779 23.4368 16.2889 23.4368C14.8598 23.4368 13.9871 22.796 13.6101 22.1527C13.2014 21.4672 13.2014 20.5971 13.2014 19.0309V15.6111C13.2014 13.2565 13.2541 13.2565 14.8783 13.2565V12.8953H9.90816V13.2565H10.156C11.6062 13.2565 11.622 13.4411 11.622 15.6427V18.9808C11.622 20.8212 11.622 21.5779 12.1652 22.3821C12.5923 23.0096 13.6602 23.9773 15.9145 23.9773C17.9869 23.9773 19.3158 23.1599 19.8959 22.1052C20.3178 21.3142 20.3178 20.6076 20.3178 19.1785V15.5584C20.3178 14.2137 20.3178 13.3699 21.9156 13.2565V12.8953H18.2612V13.2565ZM30.5006 13.2565H30.7327C32.1617 13.2565 32.196 13.4068 32.196 15.6085V20.9504C32.196 23.0597 32.196 23.4183 30.817 23.4183H30.5006V23.7795H35.4708V23.4157H35.1544C33.7754 23.4157 33.7754 23.0544 33.7754 20.9477V15.6111C33.7754 13.3884 33.807 13.2565 35.2361 13.2565H35.4681V12.8953H30.5006V13.2565ZM26.0235 17.2037C24.7579 16.6447 23.408 16.0514 23.408 14.7515C23.408 14.0291 23.901 13.0904 25.28 13.0904C26.5034 13.0904 27.8771 14.0185 28.1619 15.5109H28.5258V12.8953H28.183C28.1461 13.0931 28.0353 13.6125 27.7532 13.8498C27.3577 13.42 26.6669 12.6976 25.2352 12.6976C23.4264 12.6976 22.3612 13.979 22.3612 15.3949C22.3612 17.4673 24.1541 18.2425 25.367 18.7646C25.4672 18.7988 26.0077 19.0282 26.1053 19.081C27.2127 19.5556 28.328 20.1805 28.328 21.4619C28.328 22.4638 27.5212 23.5818 25.9102 23.5818C23.5793 23.5818 22.8648 21.3485 22.675 20.3914H22.2742V23.7848H22.6328C22.7541 23.0729 22.9624 22.7618 23.0626 22.6141C23.3262 22.9094 24.2622 23.9773 26.0552 23.9773C28.1434 23.9773 29.475 22.68 29.475 20.8396C29.475 18.7646 28.1408 18.1397 26.0209 17.201L26.0235 17.2037ZM63.2271 17.2037C61.9562 16.6447 60.6089 16.0514 60.6089 14.7515C60.6089 14.0291 61.1019 13.0904 62.4809 13.0904C63.7043 13.0904 65.078 14.0185 65.3628 15.5109H65.724V12.8953H65.3812C65.3443 13.0931 65.2336 13.6125 64.9488 13.8498C64.5533 13.42 63.8678 12.6976 62.4334 12.6976C60.622 12.6976 59.5542 13.979 59.5542 15.3949C59.5542 17.4673 61.3471 18.2425 62.56 18.7646C62.6655 18.7988 63.2034 19.0282 63.3035 19.081C64.4057 19.5556 65.5236 20.1805 65.5236 21.4619C65.5236 22.4638 64.7168 23.5818 63.1058 23.5818C60.7723 23.5818 60.0604 21.3485 59.8706 20.3914H59.4698V23.7848H59.831C59.9523 23.0729 60.1606 22.7618 60.2608 22.6141C60.5245 22.9094 61.4605 23.9773 63.2535 23.9773C65.3443 23.9773 66.6759 22.68 66.6759 20.8396C66.6759 18.7646 65.3443 18.1397 63.2218 17.201L63.2271 17.2037ZM71.7594 17.2037C70.4938 16.6447 69.1438 16.0514 69.1438 14.7515C69.1438 14.0291 69.6368 13.0904 71.0158 13.0904C72.2393 13.0904 73.613 14.0185 73.8977 15.5109H74.2589V12.8953H73.9162C73.8793 13.0931 73.7685 13.6125 73.4864 13.8498C73.0909 13.42 72.4054 12.6976 70.971 12.6976C69.1622 12.6976 68.097 13.979 68.097 15.3949C68.097 17.4673 69.89 18.2425 71.1028 18.7646C71.203 18.7988 71.7436 19.0282 71.8411 19.081C72.9485 19.5556 74.0638 20.1805 74.0638 21.4619C74.0638 22.4638 73.2544 23.5818 71.6434 23.5818C69.3125 23.5818 68.598 21.3485 68.4082 20.3914H68.0126V23.7848H68.3686C68.4899 23.0729 68.7008 22.7618 68.7984 22.6141C69.0621 22.9094 69.9981 23.9773 71.791 23.9773C73.8793 23.9773 75.2108 22.68 75.2108 20.8396C75.2108 18.7646 73.8793 18.1397 71.7567 17.201L71.7594 17.2037ZM44.2905 13.2565C46.1493 13.275 46.1493 14.1135 46.1493 14.9018V21.272H46.1177L39.7079 12.8953H36.5017V13.2565C37.8833 13.2565 38.1101 13.2565 38.1101 15.6085V21.3775C38.1101 22.3979 38.1101 22.6616 37.8675 22.9068C37.4193 23.3366 36.681 23.3814 36.3541 23.4183V23.7795H40.4145V23.4157C39.3783 23.3972 38.9855 23.0993 38.8853 23.0043C38.5557 22.7249 38.5082 22.5113 38.5082 21.3749V13.834H38.5399L46.1546 23.7822H46.5501V15.0152C46.5501 14.1451 46.5501 13.4068 48.2428 13.2539V12.8953H44.2957V13.2565H44.2905ZM54.4074 23.4209H53.6032C52.1056 23.4209 52.0054 23.2891 52.0054 20.7895V18.2056H53.1919C54.439 18.2056 54.8003 18.29 54.8003 19.9353H55.1799V16.2017H54.8003C54.8003 17.4673 54.7027 17.8444 53.1734 17.8444H52.0054V13.2565H53.5979C55.5016 13.2565 56.2953 13.3251 56.7488 15.5109H57.1232V12.8953H49.0154V13.2565C50.4128 13.2565 50.426 13.4543 50.426 15.6085V20.9504C50.426 23.0544 50.426 23.4183 49.0127 23.4183H48.7965V23.7795H57.8087V20.394H57.4317C56.8938 23.4315 55.499 23.4183 54.4048 23.4183L54.4074 23.4209ZM6.09025 17.9446V17.9103C6.74415 17.8312 9.16198 17.4673 9.16198 15.3791C9.16198 12.7793 5.72375 12.89 4.706 12.89C4.24458 12.89 0.869629 12.8953 0.869629 12.8953V13.2565C2.50437 13.2565 2.55183 13.2565 2.55183 15.6427V20.953C2.55183 23.0571 2.55183 23.4209 1.17021 23.4209H0.869629V23.7822H5.03558C5.9716 23.7822 7.51406 23.7822 8.4369 23.2021C9.25954 22.6932 9.75524 21.7888 9.75524 20.8185C9.75524 18.8938 8.14159 18.0764 6.09025 17.9446ZM4.12856 13.2592C4.12856 13.2592 4.82992 13.2486 5.13578 13.2592C6.71778 13.2855 7.4666 13.7918 7.4666 15.4608C7.4666 17.5332 6.16935 17.8127 4.12856 17.7626V13.2592ZM5.4469 23.4025C4.12856 23.4025 4.12856 23.0914 4.12856 20.5918V18.1555C5.77385 18.0553 6.69405 18.3348 7.15547 18.6644C7.76191 19.1073 7.99394 19.7981 7.99394 20.7684C7.99394 21.3432 8.00976 23.3972 5.44427 23.3972L5.4469 23.4025Z" fill="#1B1B1B"/>
<path d="M13.2884 7.91727V1.0039H14.7992C15.9936 1.0039 16.6291 1.0039 16.9692 3.02887H17.2645V0.682224H7.89901V3.02887H8.22596C8.34461 2.33542 8.516 1.72899 8.7533 1.43368C9.09607 1.0039 9.45465 1.0039 10.4724 1.0039H11.8699V7.912C11.8699 9.80513 11.8883 10.1321 10.6306 10.1321H10.1296V10.4564H15.018V10.1321H14.5276C13.2884 10.1321 13.2884 9.80777 13.2884 7.91727ZM49.991 0.50293C47.3332 0.50293 44.7176 2.17195 44.7176 5.49416C44.7176 8.74255 47.0642 10.6357 50.0358 10.6357C53.2842 10.6357 55.3671 8.53689 55.3671 5.55217C55.3698 2.0533 52.6461 0.50293 49.991 0.50293ZM50.0964 10.2797C47.5257 10.2797 46.3734 8.59226 46.3734 5.55481C46.3734 3.4982 46.993 0.861518 50.0384 0.861518C53.4186 0.861518 53.7113 4.15209 53.7113 5.56799C53.7113 7.22382 53.3026 10.2824 50.0991 10.2824L50.0964 10.2797ZM73.2386 1.80281C72.3368 1.03818 71.1899 0.679587 69.0462 0.679587H64.7036V1.0039H64.9831C66.283 1.0039 66.312 1.21483 66.312 3.19234V7.91727C66.312 9.26198 66.2751 9.87632 65.7847 10.0873C65.521 10.1795 65.2995 10.1664 65.1571 10.1347C64.556 10.0161 64.0313 9.58102 62.8632 8.00428C62.7894 7.91727 62.4334 7.44267 62.3623 7.33984C62.183 7.10254 61.268 5.87912 60.6326 5.55481V5.52317C62.183 5.36497 63.4275 4.5476 63.4275 3.07106C63.4275 2.43825 63.1902 1.87664 62.5969 1.38885C62.0406 0.932708 61.181 0.682224 59.1877 0.682224H55.5702V1.0039C57.0203 1.0039 57.0599 1.0039 57.0599 3.11852V7.91727C57.0599 9.80777 57.0599 10.1321 55.8048 10.1321H55.4963V10.4564H60.1764V10.1321H59.7018C58.4626 10.1321 58.4784 9.80777 58.4784 7.91727V5.74992H58.8634C59.0216 5.74992 59.3195 5.73146 59.5568 5.96877C59.8521 6.26407 60.506 7.01553 61.094 7.88827C61.4895 8.48152 62.4967 9.92906 63.235 10.459H69.0014C70.4463 10.459 72.0415 10.4748 73.3256 9.37799C74.6544 8.26004 74.8285 6.48819 74.8285 5.66027C74.8337 4.56605 74.5806 2.94449 73.2386 1.80545V1.80281ZM59.2905 5.3887H58.4784V1.07245H59.0796C60.3927 1.07245 61.8402 1.05136 61.8402 3.1818C61.8402 4.6267 61.1916 5.39661 59.2826 5.39661L59.2905 5.3887ZM71.849 9.44918C71.0369 10.0873 69.9585 10.1163 69.2651 10.1163C67.7147 10.1163 67.7305 10.0583 67.7305 7.48749V1.0039C67.7305 1.0039 68.424 0.998625 68.9249 0.998625C69.6975 0.998625 71.3243 0.919525 72.3394 2.36443C73.1094 3.45601 73.2544 4.82972 73.2544 5.76047C73.2544 6.92588 73.0329 8.53689 71.8517 9.45182L71.849 9.44918ZM4.23667 4.55287C3.1029 4.0519 1.89002 3.51929 1.89002 2.35124C1.89002 1.70262 2.33035 0.861518 3.57222 0.861518C4.66908 0.861518 5.90305 1.69207 6.15617 3.03414H6.48048V0.676951H6.16935C6.14299 0.853608 6.04279 1.32294 5.78703 1.53387C5.43108 1.15155 4.81146 0.50293 3.5274 0.50293C1.90321 0.50293 0.943456 1.65516 0.943456 2.92867C0.943456 4.7849 2.55183 5.48098 3.64605 5.95295C3.7357 5.97931 4.22085 6.19025 4.31049 6.23243C5.29925 6.66221 6.30382 7.22119 6.30382 8.37342C6.30382 9.27516 5.58401 10.2797 4.13647 10.2797C2.04295 10.2797 1.3996 8.27586 1.23085 7.4163H0.869629V10.4564H1.20712C1.29677 9.85523 1.48925 9.54147 1.57626 9.40699C1.81356 9.67066 2.6573 10.633 4.26567 10.633C6.14299 10.633 7.3374 9.46764 7.3374 7.8118C7.3374 5.95295 6.14035 5.39133 4.23667 4.55023V4.55287ZM33.0107 1.0039C34.6798 1.01972 34.6798 1.57869 34.6798 2.48044V8.2284H34.6534L28.887 0.682224H26.0104V1.0039C27.2496 1.0039 27.4605 1.0039 27.4605 3.11324V8.29959C27.4605 9.21715 27.45 9.51246 27.2364 9.74449C26.9068 10.0978 26.4032 10.2112 25.9814 10.1268C25.396 9.97652 25.2167 9.62057 24.961 9.00886C24.9451 8.95085 24.8871 8.81638 24.8133 8.66609L21.3909 0.53457H21.1088L18.2717 7.33193C18.1979 7.49013 17.9606 8.0702 17.9158 8.17567C17.4412 9.41491 17.2223 9.97388 16.1887 10.1374V10.4617H19.097V10.1374C18.2533 10.1374 18.0344 9.62057 18.0344 9.21979C18.0344 8.80847 18.2849 8.24422 18.5354 7.62724C18.567 7.55341 18.5802 7.4954 18.596 7.47958L18.8465 6.85733H22.5695L23.3078 8.65818C23.3341 8.72146 23.466 9.01677 23.4844 9.07477C23.5899 9.29625 23.6426 9.45973 23.6426 9.60738C23.6426 10.14 23.1285 10.14 22.435 10.14V10.4643H29.5224V10.14C28.5917 10.1242 28.2384 9.85787 28.1513 9.77086C27.8534 9.52037 27.8086 9.3279 27.8086 8.3075V1.52332H27.8349L34.6798 10.4564H35.0304V2.58591C35.0304 1.80281 35.0568 0.977532 36.5492 0.977532C38.0415 0.977532 38.0705 1.80281 38.0705 2.58591V7.912C38.0705 9.8025 38.0705 10.1268 36.8313 10.1268H36.5333V10.4511H41.0684V10.1268H40.7441C39.4891 10.1268 39.4891 9.8025 39.4891 7.912V5.47571H40.404C41.2899 5.47571 41.8805 5.47571 41.8805 7.0999H42.2365V3.66167H41.8805C41.8805 5.03274 41.4059 5.14876 40.404 5.14876H39.4891V1.0039H41.3927C42.3419 1.0039 42.9405 1.0039 43.4124 1.68416C43.8079 2.24314 43.829 2.66501 43.866 3.02887H44.214V0.682224H33.0081V1.0039H33.0107ZM18.9942 6.52774L20.708 2.36179L22.435 6.52774H18.9915H18.9942Z" fill="#1B1B1B"/>
<line x1="89.8574" y1="0.50293" x2="89.8574" y2="23.9694" stroke="#1B1B1B" stroke-width="0.263668"/>
</g>
<defs>
<clipPath id="clip0_302_389">
<rect width="89.9997" height="23.9999" fill="white" transform="translate(0.5)"/>
</clipPath>
</defs>
</svg>
