<svg width="183" height="57" viewBox="0 0 183 57" fill="none" xmlns="http://www.w3.org/2000/svg"><g clip-path="url(#clip0_101_627)"><path fill-rule="evenodd" clip-rule="evenodd" d="M9.59522 6.11424C10.8095 7.06124 11.3523 8.31016 11.2088 9.83295L11.1015 10.9713L12.2234 10.7601C12.8869 10.6336 13.563 10.5849 14.2378 10.615L15.005 10.648L15.1254 9.88739C15.4092 8.06433 15.2459 6.33202 14.6486 4.87688C13.7874 2.77665 12.0733 1.23242 9.54408 0.288719L8.78021 0L6.68164 4.84883L7.64843 5.10455C8.35203 5.32319 9.0112 5.66506 9.59522 6.11424Z" fill="#EDA147"></path><path fill-rule="evenodd" clip-rule="evenodd" d="M16.8893 10.8806C21.9773 12.669 26.7222 10.2207 29.291 5.53188C17.2473 0.687996 16.4224 9.9138 16.4224 9.9138V10.059C16.4224 10.059 19.986 7.37308 24.3415 6.98702C19.7022 7.44897 16.8893 10.8806 16.8893 10.8806Z" fill="#EDA147"></path><path d="M30.69 13.616H28.1328V16.2557H30.69V13.616Z" fill="white"></path><path d="M34.4844 14.7709H33.082V16.1732H34.4844V14.7709Z" fill="white"></path><path fill-rule="evenodd" clip-rule="evenodd" d="M26.7006 31.4456H23.203V27.948H26.7006V31.4456ZM20.7481 23.1602H24.2457V26.6595H20.7481V23.1602ZM16.3975 19.3656V14.893H20.8685V19.3656H16.3975ZM21.8072 19.7616H23.1964V21.1524H21.8072V19.7616ZM30.4177 30.2396C30.3272 28.6023 30.069 26.9787 29.6472 25.3941H26.0011V20.212H27.4051C26.828 19.2893 26.1652 18.4231 25.4253 17.6251H22.4985V15.0926C20.9049 13.9717 19.1228 13.1463 17.2372 12.6558C15.742 12.2611 14.1899 12.1266 12.6491 12.2582C9.92064 12.5338 7.32098 13.5562 5.13578 15.213C3.72463 16.3493 2.48444 17.6828 1.45338 19.1726L1.31479 19.3706C1.22735 19.4993 1.13166 19.6329 1.05247 19.7665C1.01288 19.8457 0.704359 20.5123 1.54742 20.5123H2.1397L7.72601 30.1654L13.3156 20.5123H20.0799V44.2334H13.3107V32.6847L8.03122 41.5591H7.42409L2.14465 32.6847V43.9463H2.1331C2.11001 45.1936 1.55236 46.1555 0.912231 47.246L0.826447 47.3945C0.222668 48.2325 -0.0611804 49.2591 0.0262769 50.2883C0.0823709 51.7863 0.889139 53.8436 4.27953 55.373C5.03951 55.734 5.83301 56.0197 6.64867 56.226C8.37031 56.6962 10.1623 56.8544 11.9397 56.6929C14.0801 56.4912 16.1634 55.8879 18.0803 54.9144C20.1093 53.8852 21.95 52.5209 23.5247 50.8789C26.9596 47.3351 29.2413 42.6397 30.124 37.2943C30.5087 35.2214 30.6284 33.1081 30.4804 31.0051C30.4589 30.7544 30.4424 30.4953 30.4177 30.2396Z" fill="#EDA147"></path><path d="M29.8653 21.3701H27.3081V24.0099H29.8653V21.3701Z" fill="white"></path><path d="M30.3602 17.5756H28.6279V19.3904H30.3602V17.5756Z" fill="#EDA147"></path><path d="M25.9056 14.5234H24.0083V16.3382H25.9056V14.5234Z" fill="#EDA147"></path><path fill-rule="evenodd" clip-rule="evenodd" d="M47.2031 29.6457L42.2965 23.1899H39.6304V38.9457H42.2338V27.3359L47.2031 33.8874L52.207 27.3343V38.9457H54.8087V23.1899H52.1443L47.2031 29.6457Z" fill="white"></path><path fill-rule="evenodd" clip-rule="evenodd" d="M60.3159 34.219C60.5501 33.9685 60.8477 33.7861 61.1771 33.691C61.5214 33.5831 61.8725 33.4982 62.2281 33.437C62.5324 33.3873 62.8403 33.363 63.1487 33.3644C63.7378 33.3662 64.3261 33.4037 64.9107 33.4766V35.1264C64.9107 36.2252 64.1386 36.7597 62.5152 36.7597C60.8224 36.7597 59.9975 36.2004 59.9975 35.0488C59.9914 34.7413 60.1057 34.4435 60.3159 34.219ZM62.2792 26.8146C61.0719 26.808 59.8736 27.0227 58.7437 27.4481L58.5952 27.5042V29.7777L58.8987 29.677C59.8916 29.3217 60.9361 29.1316 61.9905 29.1144C63.0233 29.1144 63.7674 29.3075 64.2013 29.6869C64.5857 30.0169 64.8167 30.5729 64.8909 31.3285C64.2836 31.2576 63.6727 31.2228 63.0612 31.2245C61.3454 31.2245 59.9728 31.5545 58.9845 32.2144C58.5018 32.5138 58.1059 32.9343 57.8361 33.4342C57.5664 33.9341 57.4322 34.4959 57.4469 35.0637C57.4479 35.3293 57.4722 35.5943 57.5195 35.8556C57.5957 36.2144 57.72 36.5612 57.8891 36.8867C58.0917 37.2973 58.3718 37.6648 58.714 37.969C59.1624 38.3316 59.6775 38.6028 60.2301 38.7675C61.711 39.2074 63.2871 39.212 64.7705 38.7807C65.318 38.6255 65.8275 38.3587 66.2669 37.9971C66.6008 37.6963 66.8726 37.3331 67.067 36.928C67.229 36.6142 67.352 36.2818 67.4333 35.9381C67.4844 35.6811 67.5109 35.4198 67.5125 35.1577V31.8432C67.5125 30.2363 67.0489 28.9824 66.1365 28.1146C65.2242 27.2468 63.9274 26.8146 62.2792 26.8146Z" fill="white"></path><path fill-rule="evenodd" clip-rule="evenodd" d="M75.2186 26.8146C73.4745 26.8231 71.7559 27.2342 70.1966 28.0156L70.0679 28.0783V38.9408H72.6416V29.5566C73.4514 29.3172 74.2917 29.1971 75.1361 29.2002C76.1112 29.2002 76.7579 29.3652 77.0582 29.7067C77.3823 30.1155 77.5438 30.6296 77.5119 31.1503V38.9358H80.1318V31.3202C80.1318 29.9212 79.6781 28.8059 78.8119 28.009C77.9458 27.2122 76.7332 26.8146 75.2186 26.8146Z" fill="white"></path><path fill-rule="evenodd" clip-rule="evenodd" d="M85.4013 30.8682C85.4969 30.4479 85.7117 30.0641 86.0199 29.7628C86.2522 29.5537 86.5236 29.3928 86.8184 29.2893C87.1214 29.1998 87.4364 29.1575 87.7523 29.1639C88.2157 29.1559 88.6781 29.2114 89.1265 29.3289C89.3806 29.3827 89.6078 29.524 89.7683 29.7281C89.864 29.863 89.9401 30.0108 89.9944 30.167C90.0226 30.292 90.0354 30.42 90.0323 30.5481V36.0338C89.3636 36.2796 88.6561 36.4031 87.9436 36.3984C87.0676 36.3984 86.3779 36.174 85.8929 35.7219C85.4079 35.2699 85.167 34.3361 85.167 32.9172C85.1502 32.2267 85.2291 31.5371 85.4013 30.8682ZM91.2416 27.8061C90.3639 27.1462 89.1909 26.8162 87.7523 26.8162C86.015 26.8162 84.7067 27.3821 83.8603 28.5023C83.014 29.6225 82.6064 31.081 82.6064 32.904C82.6064 34.765 83.0733 36.2185 83.9906 37.22C84.908 38.2214 86.2476 38.7444 87.9502 38.7444C88.6541 38.7412 89.3551 38.6554 90.0389 38.4887V39.1998C90.0442 39.4072 90.0271 39.6147 89.9878 39.8184C89.9285 40.0124 89.8327 40.1933 89.7056 40.3513C89.4861 40.5956 89.1931 40.7618 88.8708 40.8248C88.3045 40.9653 87.7219 41.0291 87.1385 41.0146C86.0681 41.0094 85.004 40.8499 83.9791 40.5411L83.6838 40.4536V42.9366L83.8488 42.9861C84.9748 43.3125 86.141 43.4791 87.3134 43.4811C88.1981 43.4987 89.08 43.374 89.9251 43.1115C90.5654 42.9205 91.1407 42.5569 91.5881 42.0606C91.9292 41.6614 92.1927 41.202 92.3652 40.7061C92.5199 40.2265 92.5957 39.725 92.5895 39.2212V30.6867C92.5928 29.4444 92.1375 28.4776 91.2416 27.8061Z" fill="white"></path><path fill-rule="evenodd" clip-rule="evenodd" d="M100.136 29.2348C100.536 29.2278 100.936 29.2699 101.325 29.3602C101.668 29.458 101.987 29.6266 102.261 29.8552C102.595 30.1508 102.831 30.5417 102.937 30.9754C103.262 32.3143 103.262 33.7116 102.937 35.0505C102.831 35.4846 102.595 35.8761 102.261 36.1724C101.987 36.4004 101.668 36.569 101.325 36.6673C100.54 36.8356 99.7283 36.8356 98.9431 36.6673C98.6006 36.5697 98.2824 36.4011 98.0093 36.1724C97.6758 35.8752 97.4401 35.4841 97.3329 35.0505C97.0112 33.7117 97.0112 32.3158 97.3329 30.9771C97.4388 30.5429 97.6748 30.1515 98.0093 29.8552C98.2823 29.6263 98.6005 29.4576 98.9431 29.3602C99.3341 29.2698 99.7347 29.2277 100.136 29.2348ZM103.889 28.0536C103.352 27.6529 102.749 27.3492 102.108 27.1561C100.815 26.8113 99.454 26.8113 98.1611 27.1561C97.5198 27.3489 96.9173 27.6526 96.381 28.0536C95.7413 28.5464 95.2564 29.2123 94.9836 29.9723C94.3186 31.9358 94.3186 34.0637 94.9836 36.0272C95.2564 36.7872 95.7413 37.4531 96.381 37.9459C96.9173 38.3469 97.5198 38.6506 98.1611 38.8434C99.4533 39.1932 100.815 39.1932 102.108 38.8434C102.749 38.6503 103.352 38.3466 103.889 37.9459C104.528 37.4526 105.013 36.7869 105.287 36.0272C105.952 34.0637 105.952 31.9358 105.287 29.9723C105.013 29.2129 104.528 28.5473 103.889 28.0536Z" fill="white"></path><path fill-rule="evenodd" clip-rule="evenodd" d="M115.918 29.6457L111.012 23.1899H108.346V38.9457H110.949V27.3359L115.917 33.8874L120.922 27.3343V38.9457H123.524V23.1899H120.86L115.918 29.6457Z" fill="#EDA147"></path><path fill-rule="evenodd" clip-rule="evenodd" d="M134.167 32.0247H128.762C128.873 30.987 129.122 30.2495 129.508 29.8271C129.894 29.4048 130.575 29.1524 131.475 29.1524C131.92 29.1392 132.362 29.2391 132.758 29.4427C133.094 29.6183 133.374 29.8847 133.567 30.2116C133.752 30.5297 133.899 30.8686 134.005 31.2213C134.081 31.4841 134.135 31.7529 134.167 32.0247ZM131.475 26.8146C127.951 26.8146 126.164 28.9247 126.164 33.0839C126.143 34.104 126.311 35.1191 126.659 36.0783C126.917 36.8286 127.389 37.4869 128.017 37.9723C128.542 38.3582 129.13 38.6522 129.754 38.8418C130.382 39.0219 131.034 39.1103 131.687 39.1041H131.755C133.162 39.1251 134.559 38.8655 135.865 38.3402L136.008 38.2808V35.8408L135.668 36.0173C134.609 36.5716 133.309 36.8521 131.801 36.8521C130.097 36.8521 129.122 36.0387 128.832 34.3642H136.724L136.742 34.1579C136.789 33.6514 136.812 33.1136 136.812 32.5642C136.812 30.8352 136.327 29.4295 135.373 28.3902C134.42 27.3508 133.096 26.8146 131.475 26.8146Z" fill="#EDA147"></path><path fill-rule="evenodd" clip-rule="evenodd" d="M144.053 29.1837C144.814 29.1819 145.57 29.3195 146.282 29.5896V35.2914C146.292 35.458 146.268 35.6249 146.212 35.7819C146.155 35.9389 146.066 36.0825 145.952 36.2037C145.579 36.5749 144.883 36.7647 143.876 36.7647C143.531 36.7715 143.188 36.7265 142.857 36.631C142.543 36.5235 142.254 36.3554 142.005 36.1361C141.677 35.8204 141.447 35.4155 141.345 34.9713C141.166 34.2743 141.084 33.5559 141.101 32.8365C141.084 32.1682 141.165 31.501 141.344 30.8567C141.451 30.44 141.681 30.0652 142.004 29.781C142.271 29.5661 142.578 29.4068 142.908 29.3124C143.282 29.2212 143.667 29.178 144.053 29.1837ZM146.282 27.1149C144.925 26.7622 143.501 26.7548 142.141 27.0934C141.512 27.2786 140.921 27.5729 140.395 27.9629C139.768 28.4487 139.294 29.1036 139.027 29.8503C138.677 30.8037 138.509 31.8144 138.532 32.8299C138.517 33.7487 138.642 34.6645 138.904 35.5455C139.092 36.2119 139.405 36.8366 139.826 37.3867C140.191 37.8281 140.64 38.1936 141.146 38.4623C141.584 38.7106 142.059 38.8882 142.553 38.9886C142.989 39.0666 143.43 39.1053 143.873 39.1041C144.632 39.1175 145.389 39.01 146.115 38.7857C146.658 38.6289 147.163 38.3634 147.6 38.0053C147.934 37.7063 148.206 37.3441 148.4 36.9396C148.562 36.6255 148.685 36.2932 148.768 35.9497C148.819 35.6933 148.845 35.4324 148.845 35.171V22.6867H146.28L146.282 27.1149Z" fill="#EDA147"></path><path d="M154.293 27.067H151.736V38.9457H154.293V27.067Z" fill="#EDA147"></path><path d="M154.376 23.0249H151.736V25.7471H154.376V23.0249Z" fill="#EDA147"></path><path fill-rule="evenodd" clip-rule="evenodd" d="M162.455 26.8146C160.64 26.8146 159.236 27.3508 158.279 28.4083C157.322 29.4658 156.849 30.9919 156.849 32.9618C156.849 34.9317 157.329 36.4611 158.279 37.512C159.229 38.563 160.64 39.1058 162.455 39.1058C163.646 39.107 164.828 38.8871 165.939 38.4574L166.088 38.3996V35.8968L165.758 36.0486C164.783 36.5139 163.718 36.7568 162.638 36.7597C162.226 36.7665 161.815 36.7233 161.414 36.631C161.057 36.5363 160.723 36.3677 160.435 36.1361C160.089 35.8418 159.841 35.4486 159.724 35.0092C159.539 34.3492 159.454 33.6652 159.47 32.98C159.47 31.4572 159.749 30.431 160.295 29.9377C160.841 29.4444 161.638 29.1804 162.682 29.1804C163.748 29.1892 164.797 29.4384 165.753 29.9096L166.083 30.0746V27.5372L165.934 27.4795C164.826 27.0415 163.646 26.816 162.455 26.8146Z" fill="#EDA147"></path><path fill-rule="evenodd" clip-rule="evenodd" d="M170.606 34.2206C170.841 33.9716 171.138 33.7899 171.466 33.6943C171.811 33.5858 172.164 33.5004 172.52 33.4386C172.824 33.3869 173.132 33.3599 173.441 33.3577C174.029 33.3593 174.617 33.3974 175.201 33.4716V35.1214C175.201 36.2218 174.431 36.7564 172.807 36.7564C171.113 36.7564 170.286 36.1971 170.286 35.0455C170.283 34.7396 170.397 34.444 170.606 34.2206ZM172.586 26.8145C171.376 26.8078 170.174 27.0225 169.041 27.4481L168.896 27.5042V29.7793L169.198 29.677C170.192 29.3222 171.237 29.1327 172.293 29.116C173.324 29.116 174.068 29.3074 174.503 29.6885C174.888 30.0185 175.12 30.5745 175.195 31.3301C174.587 31.2592 173.976 31.2245 173.365 31.2262C171.646 31.2262 170.273 31.5561 169.282 32.2161C168.8 32.5156 168.404 32.936 168.135 33.4355C167.865 33.935 167.731 34.4963 167.746 35.0637C167.747 35.3296 167.77 35.595 167.815 35.8572C167.894 36.216 168.02 36.5627 168.189 36.8884C168.39 37.3007 168.67 37.6691 169.014 37.9723C169.463 38.3323 169.976 38.6019 170.527 38.7659C172.009 39.2057 173.586 39.2103 175.071 38.7791C175.619 38.6236 176.129 38.3568 176.569 37.9954C176.902 37.694 177.174 37.3309 177.369 36.9263C177.53 36.612 177.653 36.2797 177.735 35.9364C177.786 35.6827 177.812 35.4247 177.813 35.1659V31.8449C177.813 30.2379 177.362 28.9824 176.439 28.1146C175.515 27.2468 174.226 26.8145 172.578 26.8145H172.586Z" fill="#EDA147"></path><path d="M183 22.695H180.443V38.9457H183V22.695Z" fill="#EDA147"></path></g><defs><clipPath id="clip0_101_627"><rect width="183" height="56.7539" fill="white"></rect></clipPath></defs></svg>