<?xml version="1.0" encoding="utf-8"?>
<!-- Generator: Adobe Illustrator 17.0.0, SVG Export Plug-In . SVG Version: 6.00 Build 0)  -->
<!DOCTYPE svg PUBLIC "-//W3C//DTD SVG 1.1//EN" "http://www.w3.org/Graphics/SVG/1.1/DTD/svg11.dtd">
<svg version="1.1" id="Layer_1" xmlns="http://www.w3.org/2000/svg" xmlns:xlink="http://www.w3.org/1999/xlink" x="0px" y="0px"
	 width="1000px" height="1000px" viewBox="0 0 1000 1000" style="enable-background:new 0 0 1000 1000;" xml:space="preserve">
<style type="text/css">
	.st0{fill:url(#SVGID_1_);}
	.st1{fill:url(#SVGID_2_);}
	.st2{fill:#58595B;}
	.st3{fill:url(#SVGID_3_);}
	.st4{fill:url(#SVGID_4_);}
	.st5{fill:url(#SVGID_5_);}
	.st6{fill:url(#SVGID_6_);}
	.st7{fill:url(#SVGID_7_);}
	.st8{fill:url(#SVGID_8_);}
	.st9{fill:url(#SVGID_9_);}
	.st10{fill:url(#SVGID_10_);}
	.st11{fill:url(#SVGID_11_);}
	.st12{fill:url(#SVGID_12_);}
	.st13{fill:url(#SVGID_13_);}
	.st14{fill:url(#SVGID_14_);}
</style>
<g>
	<g>
		<g>
			<linearGradient id="SVGID_1_" gradientUnits="userSpaceOnUse" x1="264.8418" y1="517.7732" x2="541.4523" y2="250.2961">
				<stop  offset="0" style="stop-color:#FEB303"/>
				<stop  offset="1" style="stop-color:#F4761A"/>
			</linearGradient>
			<path class="st0" d="M458.3,322.9c6.6,5.1,9.6,11.9,8.8,20.2l-0.6,6.2l6.1-1.1c3.6-0.7,7.3-0.9,11-0.8l4.2,0.2l0.6-4.1
				c1.6-9.9,0.7-19.3-2.6-27.2c-4.7-11.4-14-19.8-27.7-24.9l-4.2-1.6L442.5,316l5.3,1.4C447.8,317.4,453.2,318.9,458.3,322.9z"/>
		</g>
		<g>
			<linearGradient id="SVGID_2_" gradientUnits="userSpaceOnUse" x1="298.4915" y1="552.5719" x2="575.1021" y2="285.0948">
				<stop  offset="0" style="stop-color:#FEB303"/>
				<stop  offset="1" style="stop-color:#F4761A"/>
			</linearGradient>
			<path class="st1" d="M498,349c27.7,9.7,53.6-3.6,67.5-29.1c-65.6-26.4-70.1,23.8-70.1,23.8l0,0.8c0,0,19.4-14.6,43.2-16.7
				C513.4,330.3,498,349,498,349z"/>
		</g>
	</g>
	<g>
		<g>
			<rect x="559.1" y="363.8" class="st2" width="14.1" height="14.1"/>
			<linearGradient id="SVGID_3_" gradientUnits="userSpaceOnUse" x1="349.8454" y1="605.6794" x2="626.4559" y2="338.2022">
				<stop  offset="0" style="stop-color:#FEB303"/>
				<stop  offset="1" style="stop-color:#F4761A"/>
			</linearGradient>
			<rect x="586" y="369.9" class="st3" width="7.6" height="7.6"/>
			<linearGradient id="SVGID_4_" gradientUnits="userSpaceOnUse" x1="346.5287" y1="602.2493" x2="623.1392" y2="334.7722">
				<stop  offset="0" style="stop-color:#FEB303"/>
				<stop  offset="1" style="stop-color:#F4761A"/>
			</linearGradient>
			<path class="st4" d="M571.5,454.2c-0.5-9.3-1.9-18.1-4.2-26.3h-19.8v-28.1h7.6c-3.2-5-6.7-9.7-10.7-14.1h-15.9v-13.8
				c-13.8-9.5-25.9-12.6-28.6-13.2c-8.3-2.2-16.6-2.9-24.9-2.2c-7.1,0.6-14.3,2.3-21.2,5.1c-7.7,3-14.1,6.6-19.6,10.9
				c-7.4,5.9-14.1,13.1-20,21.5c-0.2,0.4-0.5,0.7-0.7,1.1c-0.5,0.7-1,1.4-1.4,2.2c0,0,0,0,0,0c-0.2,0.4-1.9,4,2.7,4h3.2l30.4,52.4
				l30.4-52.4h36.8v128.8h-36.8v-62.7l-28.7,48.2h-3.3l-28.7-48.2v61.2h-0.1c-0.1,6.8-3.2,12-6.6,17.9c-0.2,0.3-0.3,0.5-0.5,0.8
				c-3.3,4.7-4.8,10.1-4.3,15.7c0.3,8.1,4.7,19.3,23.1,27.6c3.9,1.9,8.3,3.5,12.9,4.6c9.3,2.5,18.9,3.4,28.7,2.5
				c11.4-1,22.7-4.3,33.4-9.7c10.7-5.4,20.7-12.7,29.6-21.9c18.7-19.3,31-44.8,35.8-73.8c2.1-11.4,2.7-22.9,1.9-34.2
				C571.7,457,571.7,455.6,571.5,454.2z M524.7,397.3h7.6v7.6h-7.6V397.3z M495.4,395.1v-24.3h24.3v24.3H495.4z M519,415.8h19v19
				h-19V415.8z M551.3,460.8h-19v-19h19V460.8z"/>
			<rect x="554.6" y="406" class="st2" width="14.1" height="14.1"/>
			<linearGradient id="SVGID_5_" gradientUnits="userSpaceOnUse" x1="346.8582" y1="602.5901" x2="623.4687" y2="335.1129">
				<stop  offset="0" style="stop-color:#FEB303"/>
				<stop  offset="1" style="stop-color:#F4761A"/>
			</linearGradient>
			<rect x="561.6" y="385.3" class="st5" width="9.8" height="9.8"/>
			<linearGradient id="SVGID_6_" gradientUnits="userSpaceOnUse" x1="326.6501" y1="581.6921" x2="603.2607" y2="314.2149">
				<stop  offset="0" style="stop-color:#FEB303"/>
				<stop  offset="1" style="stop-color:#F4761A"/>
			</linearGradient>
			<rect x="536.7" y="368.7" class="st6" width="10" height="10"/>
		</g>
	</g>
</g>
<g>
	<polygon class="st2" points="215.2,648.3 193.4,619.6 181.5,619.6 181.5,689.7 193.1,689.7 193.1,638 215.2,667.2 237.4,638 
		237.4,689.7 248.9,689.7 248.9,619.6 237.1,619.6 	"/>
	<path class="st2" d="M282.1,635.9c-5.5,0-10.8,0.9-15.7,2.8l-0.7,0.3v10.1l1.3-0.5c4.9-1.6,9.5-2.5,13.8-2.5c4.6,0,7.9,0.9,9.8,2.5
		c1.7,1.5,2.7,3.9,3.1,7.3c-2.6-0.3-5.4-0.5-8.1-0.5c-7.6,0-13.8,1.5-18.2,4.4c-4.5,3-6.8,7.3-6.8,12.6c0,1.2,0.1,2.3,0.3,3.5
		c0.2,1.2,0.8,2.7,1.7,4.6c0.9,1.8,2.1,3.5,3.7,4.8c1.5,1.4,3.8,2.5,6.7,3.5c2.9,1,6.3,1.5,10.2,1.5c3.8,0,7.1-0.5,10-1.4
		c3-1,5.1-2.1,6.7-3.5c1.5-1.3,2.7-2.9,3.6-4.7c0.9-1.8,1.4-3.2,1.6-4.4c0.2-1.1,0.3-2.3,0.3-3.5v-14.7c0-7.1-2.1-12.7-6.1-16.5
		C295.2,637.9,289.5,635.9,282.1,635.9z M273.4,668.8c1-1.1,2.3-1.9,3.8-2.3c1.7-0.5,3.2-0.9,4.7-1.1c1.4-0.2,2.8-0.4,4.1-0.4
		c3,0,5.6,0.2,7.8,0.5v7.3c0,4.9-3.4,7.2-10.7,7.2c-7.5,0-11.2-2.5-11.2-7.6C272,671,272.4,669.8,273.4,668.8z"/>
	<path class="st2" d="M339.5,635.8c-7.5,0-15,1.8-22.1,5.3l-0.6,0.3v48.2h11.4V648c3.5-1,7.2-1.6,11-1.6c4.3,0,7.1,0.8,8.5,2.3
		c1.4,1.5,2,3.7,2,6.4v34.6h11.6v-33.8c0-6.2-2-11.2-5.8-14.7C351.5,637.6,346.2,635.8,339.5,635.8z"/>
	<path class="st2" d="M410.7,640.2c-3.9-2.9-9.1-4.4-15.5-4.4c-7.7,0-13.5,2.5-17.3,7.5c-3.7,4.9-5.6,11.4-5.6,19.5
		c0,8.2,2.1,14.7,6.1,19.1c4.1,4.5,10,6.7,17.5,6.7c3,0,6.2-0.4,9.3-1.1v3.2c0,1.1-0.1,2.1-0.2,2.7c-0.1,0.6-0.6,1.4-1.3,2.4
		c-0.6,0.9-1.9,1.6-3.7,2.1c-1.9,0.6-4.5,0.8-7.7,0.8c-4.6,0-9.3-0.7-14-2.1l-1.3-0.4v11l0.7,0.2c5,1.4,10.2,2.2,15.4,2.2
		c4.5,0,8.4-0.5,11.6-1.6c3.2-1.1,5.7-2.7,7.4-4.6c1.6-1.9,2.8-3.9,3.4-6c0.7-2,1-4.2,1-6.6v-37.8
		C416.7,647.5,414.7,643.2,410.7,640.2z M384.8,653.8c0.7-2.3,1.6-3.9,2.7-4.9c1.2-1,2.4-1.7,3.5-2.1c1.2-0.4,2.5-0.5,4.1-0.5
		c2.5,0,4.5,0.2,6.1,0.7c1.4,0.4,2.4,1,2.9,1.8c0.7,1.1,0.9,1.6,1,1.9c0.1,0.4,0.2,1,0.2,1.7v24.3c-2.9,1.1-6,1.6-9.3,1.6
		c-3.9,0-6.9-1-9.1-3c-2.1-2-3.2-6.1-3.2-12.4C383.8,659.2,384.2,656.2,384.8,653.8z"/>
	<path class="st2" d="M466.7,641.2c-2.6-1.9-5.2-3.2-7.9-4c-5.3-1.5-12.2-1.5-17.5,0c-2.7,0.8-5.3,2.1-7.9,4
		c-2.6,1.9-4.7,4.8-6.2,8.6c-1.5,3.7-2.2,8.3-2.2,13.5s0.7,9.8,2.2,13.5c1.5,3.8,3.6,6.7,6.2,8.6c2.6,1.9,5.2,3.2,7.9,4
		c2.7,0.8,5.6,1.2,8.8,1.2c3.1,0,6.1-0.4,8.8-1.2c2.7-0.8,5.3-2.1,7.9-4c2.6-1.9,4.7-4.8,6.2-8.6c1.5-3.7,2.2-8.3,2.2-13.5
		s-0.7-9.8-2.2-13.5C471.4,646,469.3,643.1,466.7,641.2z M450.1,646.4c2.1,0,3.8,0.2,5.3,0.6c1.4,0.4,2.8,1.1,4.1,2.2
		c1.3,1.1,2.3,2.7,3,5c0.7,2.4,1.1,5.4,1.1,9.1c0,3.7-0.4,6.7-1.1,9.1c-0.7,2.2-1.7,3.9-3,5c-1.4,1.1-2.8,1.8-4.1,2.2
		c-1.4,0.4-3.2,0.6-5.3,0.6c-2.1,0-3.9-0.2-5.3-0.6c-1.4-0.4-2.8-1.1-4.1-2.2c-1.3-1.1-2.3-2.7-3-5c-0.7-2.3-1.1-5.4-1.1-9.1
		c0-3.7,0.4-6.7,1.1-9.1c0.7-2.2,1.7-3.9,3-5c1.4-1.1,2.8-1.8,4.1-2.2C446.2,646.6,448,646.4,450.1,646.4z"/>
	<linearGradient id="SVGID_7_" gradientUnits="userSpaceOnUse" x1="520.378" y1="531.0204" x2="520.378" y2="716.1256">
		<stop  offset="0" style="stop-color:#FEB303"/>
		<stop  offset="1" style="stop-color:#F4761A"/>
	</linearGradient>
	<polygon class="st7" points="520.3,648.3 498.5,619.6 486.7,619.6 486.7,689.7 498.2,689.7 498.2,638 520.3,667.2 542.5,638 
		542.5,689.7 554.1,689.7 554.1,619.6 542.2,619.6 	"/>
	<linearGradient id="SVGID_8_" gradientUnits="userSpaceOnUse" x1="589.3201" y1="531.0204" x2="589.3201" y2="716.1256">
		<stop  offset="0" style="stop-color:#FEB303"/>
		<stop  offset="1" style="stop-color:#F4761A"/>
	</linearGradient>
	<path class="st8" d="M589.3,635.9c-15.6,0-23.5,9.4-23.5,27.9c0,5.2,0.7,9.6,2.1,13.3c1.4,3.7,3.5,6.6,6,8.4
		c2.5,1.8,5.1,3.1,7.7,3.9c2.6,0.8,5.5,1.2,8.6,1.2h0.3c6.7,0,12.8-1.1,18.2-3.4l0.6-0.3v-10.8l-1.5,0.8c-4.7,2.5-10.4,3.7-17.1,3.7
		c-7.5,0-11.8-3.6-13.2-11.1h34.9l0.1-0.9c0.2-2.3,0.3-4.6,0.3-7.1c0-7.7-2.1-13.9-6.4-18.6C602.2,638.3,596.5,635.9,589.3,635.9z
		 M601.2,659.1h-23.9c0.5-4.6,1.6-7.9,3.3-9.8c1.8-2,4.7-3,8.7-3c2.2,0,4.1,0.4,5.7,1.3c1.6,0.9,2.7,2,3.6,3.4
		c0.9,1.5,1.5,3,1.9,4.5C600.8,656.7,601.1,657.8,601.2,659.1z"/>
	<linearGradient id="SVGID_9_" gradientUnits="userSpaceOnUse" x1="643.5458" y1="531.0204" x2="643.5458" y2="716.1256">
		<stop  offset="0" style="stop-color:#FEB303"/>
		<stop  offset="1" style="stop-color:#F4761A"/>
	</linearGradient>
	<path class="st9" d="M655,637.1c-6.2-1.5-12.8-1.6-18.3-0.1c-2.6,0.7-5.2,2-7.7,3.9c-2.6,1.9-4.6,4.7-6.1,8.4
		c-1.4,3.6-2.2,8.1-2.2,13.2c0,4.6,0.6,8.6,1.6,12.1c1.1,3.5,2.5,6.2,4.1,8.2c1.6,2,3.6,3.6,5.8,4.8c2.2,1.2,4.3,2,6.2,2.3
		c1.9,0.3,3.8,0.5,5.8,0.5c3.7,0,7.1-0.5,9.9-1.4c2.9-1,5.1-2.1,6.6-3.5c1.5-1.3,2.7-2.9,3.5-4.7c0.9-1.8,1.4-3.2,1.6-4.4
		c0.2-1.1,0.3-2.3,0.3-3.5v-55.5H655V637.1z M645.1,646.3c3.4,0,6.7,0.6,9.9,1.8v25.4c0,1.7-0.5,3-1.5,4.1c-1.6,1.7-4.7,2.5-9.2,2.5
		c-1.7,0-3.3-0.2-4.5-0.6c-1.2-0.4-2.5-1.1-3.8-2.2c-1.2-1.1-2.2-2.8-2.9-5.2c-0.7-2.5-1.1-5.7-1.1-9.5c0-3.5,0.4-6.5,1.1-8.8
		c0.7-2.2,1.7-3.8,2.9-4.8c1.3-1,2.7-1.7,4-2.1C641.5,646.5,643.2,646.3,645.1,646.3z"/>
	<linearGradient id="SVGID_10_" gradientUnits="userSpaceOnUse" x1="685.1269" y1="531.0204" x2="685.1269" y2="716.1256">
		<stop  offset="0" style="stop-color:#FEB303"/>
		<stop  offset="1" style="stop-color:#F4761A"/>
	</linearGradient>
	<rect x="679.5" y="636.7" class="st10" width="11.4" height="52.9"/>
	<linearGradient id="SVGID_11_" gradientUnits="userSpaceOnUse" x1="685.1269" y1="531.0204" x2="685.1269" y2="716.1256">
		<stop  offset="0" style="stop-color:#FEB303"/>
		<stop  offset="1" style="stop-color:#F4761A"/>
	</linearGradient>
	<rect x="679.2" y="619" class="st11" width="11.9" height="11.9"/>
	<linearGradient id="SVGID_12_" gradientUnits="userSpaceOnUse" x1="722.5231" y1="531.0204" x2="722.5231" y2="716.1256">
		<stop  offset="0" style="stop-color:#FEB303"/>
		<stop  offset="1" style="stop-color:#F4761A"/>
	</linearGradient>
	<path class="st12" d="M726.9,635.9c-8,0-14.2,2.4-18.4,7.1c-4.2,4.7-6.3,11.5-6.3,20.2s2.1,15.5,6.3,20.2
		c4.2,4.7,10.4,7.1,18.4,7.1c5.3,0,10.4-1,15.4-2.9l0.7-0.3v-11.1l-1.5,0.7c-4.4,2.1-9,3.1-13.8,3.1c-2.1,0-3.9-0.2-5.4-0.6
		c-1.4-0.4-2.9-1.1-4.3-2.2c-1.4-1.1-2.4-2.7-3.1-5c-0.7-2.4-1.1-5.4-1.1-9.1c0-6.8,1.2-11.3,3.6-13.5c2.4-2.2,5.9-3.4,10.5-3.4
		c4.5,0,9.1,1.1,13.5,3.2l1.5,0.7v-11.2l-0.6-0.3C737.3,636.9,732.2,635.9,726.9,635.9z"/>
	<linearGradient id="SVGID_13_" gradientUnits="userSpaceOnUse" x1="772.6422" y1="531.0204" x2="772.6422" y2="716.1256">
		<stop  offset="0" style="stop-color:#FEB303"/>
		<stop  offset="1" style="stop-color:#F4761A"/>
	</linearGradient>
	<path class="st13" d="M771.8,635.9c-5.5,0-10.8,0.9-15.7,2.8l-0.7,0.3v10.1l1.3-0.5c4.9-1.6,9.5-2.5,13.8-2.5
		c4.6,0,7.9,0.9,9.8,2.5c1.7,1.5,2.7,3.9,3.1,7.3c-2.6-0.3-5.4-0.5-8.1-0.5c-7.6,0-13.8,1.5-18.2,4.4c-4.5,3-6.8,7.3-6.8,12.6
		c0,1.2,0.1,2.3,0.3,3.5c0.2,1.2,0.8,2.7,1.7,4.6c0.9,1.8,2.1,3.5,3.7,4.8c1.5,1.4,3.8,2.5,6.7,3.5c2.9,1,6.3,1.5,10.2,1.5
		c3.8,0,7.1-0.5,10-1.4c3-1,5.1-2.1,6.7-3.5c1.5-1.3,2.7-2.9,3.6-4.7c0.9-1.8,1.4-3.2,1.6-4.4c0.2-1.1,0.3-2.3,0.3-3.5v-14.7
		c0-7.1-2.1-12.7-6.1-16.5C784.9,637.9,779.1,635.9,771.8,635.9z M763,668.8c1-1.1,2.3-1.9,3.8-2.3c1.7-0.5,3.2-0.9,4.7-1.1
		c1.4-0.2,2.8-0.4,4.1-0.4c3,0,5.6,0.2,7.8,0.5v7.3c0,4.9-3.4,7.2-10.7,7.2c-7.5,0-11.2-2.5-11.2-7.6
		C761.6,671,762.1,669.8,763,668.8z"/>
	<linearGradient id="SVGID_14_" gradientUnits="userSpaceOnUse" x1="812.6029" y1="531.0204" x2="812.6029" y2="716.1256">
		<stop  offset="0" style="stop-color:#FEB303"/>
		<stop  offset="1" style="stop-color:#F4761A"/>
	</linearGradient>
	<rect x="806.9" y="617.4" class="st14" width="11.4" height="72.3"/>
</g>
</svg>
